<svg id="Component_2_1" data-name="Component 2 – 1" xmlns="http://www.w3.org/2000/svg" width="286" height="70" viewBox="0 0 286 70">
  <g id="Rectangle_35" data-name="Rectangle 35" transform="translate(0 4)" fill="#fff" stroke="#35853b" stroke-width="1">
    <rect width="262" height="66" stroke="none"/>
    <rect x="0.5" y="0.5" width="261" height="65" fill="none"/>
  </g>
  <g id="Blomma" transform="translate(19)">
    <path id="Icon_ionic-md-flower" data-name="Icon ionic-md-flower" d="M35.49,22.272A6.726,6.726,0,0,0,32.573,9.444a6.842,6.842,0,0,0-3.87,1.19l.055-.509a6.814,6.814,0,0,0-13.628,0l.055.509A6.832,6.832,0,0,0,4.5,16.194a6.73,6.73,0,0,0,3.9,6.078A6.726,6.726,0,0,0,11.314,35.1a6.842,6.842,0,0,0,3.87-1.19l-.055.509a6.814,6.814,0,0,0,13.628,0l-.055-.509A6.764,6.764,0,1,0,35.49,22.272Zm-13.546,6.75a6.751,6.751,0,1,1,6.814-6.75A6.786,6.786,0,0,1,21.944,29.023Z" transform="translate(52.885 11.228)" fill="rgba(239,224,8,0.88)" stroke="#35853b" stroke-width="1"/>
    <text id="BL" fill="#35853b" font-size="50" font-family="SegoeUI-Semibold, Segoe UI" font-weight="600"><tspan x="0" y="54">BL</tspan></text>
    <text id="MMA" transform="translate(97)" fill="#35853b" font-size="50" font-family="SegoeUI-Semibold, Segoe UI" font-weight="600"><tspan x="0" y="54">MMA</tspan></text>
  </g>
</svg>
